<svg xmlns="http://www.w3.org/2000/svg" version="1.1" xmlns:xlink="http://www.w3.org/1999/xlink" xmlns:svgjs="http://svgjs.dev/svgjs" width="1000" height="1000"><style>
    #light-icon {
      display: inline;
    }
    #dark-icon {
      display: none;
    }

    @media (prefers-color-scheme: dark) {
      #light-icon {
        display: none;
      }
      #dark-icon {
        display: inline;
      }
    }
  </style><g id="light-icon"><svg xmlns="http://www.w3.org/2000/svg" version="1.1" xmlns:xlink="http://www.w3.org/1999/xlink" xmlns:svgjs="http://svgjs.dev/svgjs" width="1000" height="1000"><g clip-path="url(#SvgjsClipPath3231)"><rect width="1000" height="1000" fill="#c5c5c5"></rect><g transform="matrix(41.666666666666664,0,0,41.666666666666664,0,0)"><svg xmlns="http://www.w3.org/2000/svg" version="1.1" xmlns:xlink="http://www.w3.org/1999/xlink" xmlns:svgjs="http://svgjs.dev/svgjs" width="24" height="24"><svg height="24" version="1.1" width="24" xmlns="http://www.w3.org/2000/svg" xmlns:cc="http://creativecommons.org/ns#" xmlns:dc="http://purl.org/dc/elements/1.1/" xmlns:rdf="http://www.w3.org/1999/02/22-rdf-syntax-ns#"><g transform="translate(0 -1028.4)"><path d="m5 1032.4c-1.1046 0-2 0.9-2 2v14c0 1.1 0.8954 2 2 2h6 2 6c1.105 0 2-0.9 2-2v-14c0-1.1-0.895-2-2-2h-6-2-6z" fill="#bdc3c7"></path><path d="m5 3c-1.1046 0-2 0.8954-2 2v14c0 1.105 0.8954 2 2 2h6 2 6c1.105 0 2-0.895 2-2v-14c0-1.1046-0.895-2-2-2h-6-2-6z" fill="#ecf0f1" transform="translate(0 1028.4)"></path><path d="m5 3c-1.1046 0-2 0.8954-2 2v3 1h18v-1-3c0-1.1046-0.895-2-2-2h-6-2-6z" fill="#333333" transform="translate(0 1028.4)"></path><path d="m7 5.5a1.5 1.5 0 1 1 -3 0 1.5 1.5 0 1 1 3 0z" fill="#1f1f1f" transform="translate(.5 1028.4)"></path><path d="m6 1c-0.5523 0-1 0.4477-1 1v3c0 0.5523 0.4477 1 1 1s1-0.4477 1-1v-3c0-0.5523-0.4477-1-1-1z" fill="#bdc3c7" transform="translate(0 1028.4)"></path><path d="m7 5.5a1.5 1.5 0 1 1 -3 0 1.5 1.5 0 1 1 3 0z" fill="#1f1f1f" transform="translate(12.5 1028.4)"></path><g fill="#bdc3c7"><path d="m18 1029.4c-0.552 0-1 0.4-1 1v3c0 0.5 0.448 1 1 1s1-0.5 1-1v-3c0-0.6-0.448-1-1-1z"></path><path d="m5 1039.4v2h2v-2h-2zm3 0v2h2v-2h-2zm3 0v2h2v-2h-2zm3 0v2h2v-2h-2zm3 0v2h2v-2h-2z"></path><path d="m5 1042.4v2h2v-2h-2zm3 0v2h2v-2h-2zm3 0v2h2v-2h-2zm3 0v2h2v-2h-2zm3 0v2h2v-2h-2z"></path><path d="m5 1045.4v2h2v-2h-2zm3 0v2h2v-2h-2zm3 0v2h2v-2h-2zm3 0v2h2v-2h-2zm3 0v2h2v-2h-2z"></path></g></g></svg></svg></g></g><defs><clipPath id="SvgjsClipPath3231"><rect width="1000" height="1000" x="0" y="0" rx="250" ry="250"></rect></clipPath></defs></svg></g><g id="dark-icon"><svg xmlns="http://www.w3.org/2000/svg" version="1.1" xmlns:xlink="http://www.w3.org/1999/xlink" xmlns:svgjs="http://svgjs.dev/svgjs" width="1000" height="1000"><g clip-path="url(#SvgjsClipPath3232)"><rect width="1000" height="1000" fill="#ffffff"></rect><g transform="matrix(41.666666666666664,0,0,41.666666666666664,0,0)"><svg xmlns="http://www.w3.org/2000/svg" version="1.1" xmlns:xlink="http://www.w3.org/1999/xlink" xmlns:svgjs="http://svgjs.dev/svgjs" width="24" height="24"><svg height="24" version="1.1" width="24" xmlns="http://www.w3.org/2000/svg" xmlns:cc="http://creativecommons.org/ns#" xmlns:dc="http://purl.org/dc/elements/1.1/" xmlns:rdf="http://www.w3.org/1999/02/22-rdf-syntax-ns#"><g transform="translate(0 -1028.4)"><path d="m5 1032.4c-1.1046 0-2 0.9-2 2v14c0 1.1 0.8954 2 2 2h6 2 6c1.105 0 2-0.9 2-2v-14c0-1.1-0.895-2-2-2h-6-2-6z" fill="#bdc3c7"></path><path d="m5 3c-1.1046 0-2 0.8954-2 2v14c0 1.105 0.8954 2 2 2h6 2 6c1.105 0 2-0.895 2-2v-14c0-1.1046-0.895-2-2-2h-6-2-6z" fill="#ecf0f1" transform="translate(0 1028.4)"></path><path d="m5 3c-1.1046 0-2 0.8954-2 2v3 1h18v-1-3c0-1.1046-0.895-2-2-2h-6-2-6z" fill="#333333" transform="translate(0 1028.4)"></path><path d="m7 5.5a1.5 1.5 0 1 1 -3 0 1.5 1.5 0 1 1 3 0z" fill="#1f1f1f" transform="translate(.5 1028.4)"></path><path d="m6 1c-0.5523 0-1 0.4477-1 1v3c0 0.5523 0.4477 1 1 1s1-0.4477 1-1v-3c0-0.5523-0.4477-1-1-1z" fill="#bdc3c7" transform="translate(0 1028.4)"></path><path d="m7 5.5a1.5 1.5 0 1 1 -3 0 1.5 1.5 0 1 1 3 0z" fill="#1f1f1f" transform="translate(12.5 1028.4)"></path><g fill="#bdc3c7"><path d="m18 1029.4c-0.552 0-1 0.4-1 1v3c0 0.5 0.448 1 1 1s1-0.5 1-1v-3c0-0.6-0.448-1-1-1z"></path><path d="m5 1039.4v2h2v-2h-2zm3 0v2h2v-2h-2zm3 0v2h2v-2h-2zm3 0v2h2v-2h-2zm3 0v2h2v-2h-2z"></path><path d="m5 1042.4v2h2v-2h-2zm3 0v2h2v-2h-2zm3 0v2h2v-2h-2zm3 0v2h2v-2h-2zm3 0v2h2v-2h-2z"></path><path d="m5 1045.4v2h2v-2h-2zm3 0v2h2v-2h-2zm3 0v2h2v-2h-2zm3 0v2h2v-2h-2zm3 0v2h2v-2h-2z"></path></g></g></svg></svg></g></g><defs><clipPath id="SvgjsClipPath3232"><rect width="1000" height="1000" x="0" y="0" rx="200" ry="200"></rect></clipPath></defs></svg></g></svg>